# xmcd
#
# Track frame offsets:
#	150
#	18340
#	35053
#	56641
#	73018
#	92897
#	109654
#	124028
#	138835
#	160050
#	174801
#	191858
#	207091
#	224963
#	242166
#	258645
#	274049
#	286931
#	308612
#	324111
#
# Disc length: 4565 seconds
#
# Revision: 0
# Processed by: cddbd v1.5.2PL0 Copyright (c) Steve Scherf et al.
# Submitted via: EasyCDDAExtractor 15.2.5.1
#
DISCID=2711d314
DTITLE=Various Artist - The Best Of The Cream Of Country - Volume 3 [CDTwo
DTITLE=)
DYEAR=2011
DGENRE=Country
TTITLE0=Carrie Underwood - Last Name
TTITLE1=Lonestar - My Front Porch Looking In
TTITLE2=Steve Wariner - Holes In The Floor Of Heaven
TTITLE3=Sugarland - Something More
TTITLE4=Little Big Town - I'm With The Band
TTITLE5=Trisha Yearwood - Believe Me Baby (I Lied)
TTITLE6=Josh Thompson - Beer On The Table
TTITLE7=Chely Wright - Single White Female
TTITLE8=Brad Paisley - Letter To Me
TTITLE9=Alabama - When It Goes South
TTITLE10=Kellie Pickler - Best Days Of Your Life
TTITLE11=The Bellamy Brothers - Can I Come On Home To You
TTITLE12=Diamond Rio - I Believe
TTITLE13=Lee Ann Womack - Something Worth Leaving Behind
TTITLE14=Darius Rucker - It Won't Be Like This For Long
TTITLE15=Gretchen Wilson (Featuring Merle Haggard) - Politically Uncorrect
TTITLE16=Vince Gill - The Reason Why
TTITLE17=Sara Evans - I Could Not Ask For More
TTITLE18=George Jones - Choices
TTITLE19=Julie Roberts - Break Down Here
EXTD=
EXTT0=
EXTT1=
EXTT2=
EXTT3=
EXTT4=
EXTT5=
EXTT6=
EXTT7=
EXTT8=
EXTT9=
EXTT10=
EXTT11=
EXTT12=
EXTT13=
EXTT14=
EXTT15=
EXTT16=
EXTT17=
EXTT18=
EXTT19=
PLAYORDER=
